<svg xmlns="http://www.w3.org/2000/svg" version="1.1" xmlns:xlink="http://www.w3.org/1999/xlink" xmlns:svgjs="http://svgjs.dev/svgjs" viewBox="0 0 640 800"><defs><filter id="uuunion-blur" x="-100%" y="-100%" width="400%" height="400%" color-interpolation-filters="sRGB">
        <feGaussianBlur in="SourceGraphic" stdDeviation="0 0" result="blur"></feGaussianBlur>
        <feDropShadow stdDeviation="0" in="blur" dx="0" dy="0" flood-color="hsl(335, 77%, 40%)" flood-opacity="0" x="0%" y="0%" width="100%" height="100%"></feDropShadow>
      </filter><filter id="uuunion-blur2" x="-100%" y="-100%" width="400%" height="400%" color-interpolation-filters="sRGB">
        <feGaussianBlur in="SourceGraphic" stdDeviation="0 0" result="blur"></feGaussianBlur>
        <feDropShadow stdDeviation="0" in="blur" dx="-0" dy="-0" flood-color="hsl(335, 77%, 40%)" flood-opacity="0" x="0%" y="0%" width="100%" height="100%"></feDropShadow>
      </filter><linearGradient gradientTransform="rotate(0, 0.5, 0.5)" x1="50%" y1="0%" x2="50%" y2="100%" id="uuunion-grad"><stop stop-color="hsl(335, 77%, 80%)" offset="10%"></stop><stop stop-color="hsl(335, 77%, 40%)" offset="90%"></stop></linearGradient><linearGradient gradientTransform="rotate(312, 0.5, 0.5)" x1="50%" y1="0%" x2="50%" y2="100%" id="uuunion-grad2"><stop stop-color="hsl(335, 77%, 80%)" offset="25%"></stop><stop stop-color="hsl(335, 77%, 40%)" offset="100%"></stop></linearGradient><linearGradient gradientTransform="rotate(360, 0.5, 0.5)" x1="50%" y1="0%" x2="50%" y2="100%" id="uuunion-grad3"><stop stop-color="hsl(335, 77%, 80%)" offset="0%"></stop><stop stop-color="hsl(335, 77%, 40%)" offset="75%"></stop></linearGradient></defs><path d="M-65.39 -82.72Q-53.69 -79.63 -41.99 -76.58 -30.29 -73.95 -18.58 -72.06 -6.88 -71.16 4.81 -71.34 16.51 -72.59 28.21 -74.75 39.91 -77.56 51.61 -80.67 63.31 -83.7 75.01 -86.27 86.72 -88.06 98.42 -88.86 110.12 -88.57 121.82 -87.22 133.52 -84.98 145.22 -82.13 156.92 -79.01 168.62 -76.01 180.33 -73.51 192.03 -71.8 203.73 -71.11 215.43 -71.51 227.13 -72.95 238.83 -75.27 250.53 -78.17 262.23 -81.29 273.94 -84.25 285.64 -86.69 297.34 -88.31 309.04 -88.89 320.74 -88.39 332.44 -86.84 344.14 -84.46 355.84 -81.52 367.54 -78.39 379.25 -75.47 390.95 -73.1 402.65 -71.58 414.35 -71.1 426.05 -71.71 437.75 -73.35 449.45 -75.81 461.15 -78.78 472.86 -81.9 484.56 -84.79 496.26 -87.08 507.96 -88.51 519.66 -88.88 531.36 -88.16 543.06 -86.43 554.76 -83.91 566.47 -80.9 578.17 -77.79 589.87 -74.94 601.57 -72.72 613.27 -71.4 624.97 -71.13 636.67 -71.96 648.37 -73.78 660.07 -76.36 671.78 -79.4 683.48 -82.5 684.77 -67.56 687.53 -52.62 691.56 -37.68 696.54 -22.73 702.09 -7.79 707.79 7.14 713.19 22.08 717.9 37.02 721.53 51.97 723.82 66.91 724.59 81.85 723.79 96.79 721.46 111.73 717.8 126.67 713.07 141.62 707.66 156.56 701.96 171.5 696.41 186.44 691.45 201.38 687.45 216.33 684.72 231.27 683.47 246.21 683.79 261.15 685.65 276.09 688.93 291.04 693.36 305.98 698.61 320.92 704.27 335.86 709.9 350.8 715.09 365.75 719.42 380.69 722.57 395.63 724.3 410.57 724.47 425.51 723.07 440.45 720.21 455.4 716.11 470.34 711.07 485.28 705.5 500.22 699.8 515.16 694.43 530.11 689.8 545.05 686.25 559.99 684.06 574.93 683.4 589.87 684.32 604.82 686.75 619.76 690.5 634.7 695.28 649.64 700.73 664.58 706.44 679.53 711.95 694.47 716.86 709.41 720.78 724.35 723.41 739.29 724.55 754.23 724.12 769.18 722.15 784.12 718.78 799.06 714.28 814 708.99 828.94 703.32 843.89 697.7 858.83 692.56 873.77 680.73 881.48 668.9 889.01 657.06 895.43 645.23 899.95 633.39 902 621.56 901.34 609.73 898.06 597.89 892.54 586.06 885.48 574.23 877.74 562.39 870.28 550.56 864.02 538.73 859.72 526.89 857.93 515.06 858.86 503.23 862.39 491.39 868.09 479.56 875.26 467.73 883.02 455.89 890.4 444.06 896.5 432.23 900.56 420.39 902.09 408.56 900.89 396.72 897.12 384.89 891.24 373.06 883.97 361.22 876.21 349.39 868.92 337.56 862.99 325.72 859.16 313.89 857.9 302.06 859.36 290.22 863.36 278.39 869.42 266.56 876.78 254.72 884.54 242.89 891.73 231.06 897.48 219.22 901.07 207.39 902.07 195.56 900.34 183.72 896.11 171.89 889.89 160.05 882.45 148.22 874.7 136.39 867.61 124.55 862.05 112.72 858.7 100.89 857.97 89.05 859.96 77.22 864.42 65.39 870.8 53.55 878.31 41.72 886.03 29.89 893.01 18.05 898.38 6.22 901.49 -5.6 901.94 -17.44 899.69 -29.27 895.01 -41.1 888.49 -52.94 880.91 -64.77 873.22 -64.42 858.28 -64.04 843.35 -63.66 828.41 -63.3 813.47 -62.99 798.54 -62.76 783.6 -62.63 768.66 -62.6 753.73 -62.68 738.79 -62.85 723.85 -63.12 708.92 -63.45 693.98 -63.83 679.04 -64.22 664.11 -64.59 649.17 -64.91 634.23 -65.17 619.3 -65.33 604.36 -65.39 589.42 -65.35 574.48 -65.2 559.55 -64.96 544.61 -64.64 529.67 -64.28 514.74 -63.89 499.8 -63.51 484.86 -63.17 469.93 -62.89 454.99 -62.7 440.05 -62.6 425.12 -62.61 410.18 -62.73 395.24 -62.95 380.31 -63.24 365.37 -63.59 350.43 -63.98 335.5 -64.36 320.56 -64.72 305.62 -65.02 290.69 -65.24 275.75 -65.37 260.81 -65.39 245.88 -65.3 230.94 -65.12 216 -64.85 201.07 -64.51 186.13 -64.13 171.19 -63.75 156.26 -63.38 141.32 -63.06 126.38 -62.81 111.44 -62.65 96.51 -62.6 81.57 -62.65 66.63 -62.8 51.7 -63.05 36.76 -63.37 21.82 -63.74 6.89 -64.12 -8.04 -64.5 -22.98 -64.84 -37.91 -65.11 -52.85 -65.3 -67.79 -65.39 -82.72" fill="url(#uuunion-grad)"></path><path d="M-65.39 -82.72Q-65.3 -67.79 -65.11 -52.85 -64.84 -37.91 -64.5 -22.98 -64.12 -8.04 -63.74 6.89 -63.37 21.82 -63.05 36.76 -62.8 51.7 -62.65 66.63 -62.6 81.57 -62.65 96.51 -62.81 111.44 -63.06 126.38 -63.38 141.32 -63.75 156.26 -64.13 171.19 -64.51 186.13 -64.85 201.07 -65.12 216 -65.3 230.94 -65.39 245.88 -65.37 260.81 -65.24 275.75 -65.02 290.69 -64.72 305.62 -64.36 320.56 -63.98 335.5 -63.59 350.43 -63.24 365.37 -62.95 380.31 -62.73 395.24 -46.37 402.45 -30.01 409.12 -13.65 413.81 2.7 415.5 9.49 411.85 24.69 399.74 34.55 390.26 44.35 380.04 54.06 369.44 63.69 358.83 73.25 348.58 82.73 339.03 92.14 330.45 101.49 323.02 110.78 316.84 120.03 311.88 129.24 308.01 138.44 305.03 147.62 302.65 156.81 300.52 166.01 298.3 175.25 295.64 184.55 292.25 193.9 287.89 203.33 282.41 212.86 275.76 222.49 267.99 232.24 259.24 242.11 249.74 252.11 239.77 262.25 229.65 272.54 219.73 282.97 210.29 293.55 201.62 304.26 193.9 315.11 187.25 326.09 181.68 337.18 177.13 348.38 173.44 359.67 170.37 371.04 167.65 382.45 164.98 393.91 162.05 405.37 158.57 416.83 154.33 428.26 149.16 439.63 142.99 450.93 135.82 462.12 127.74 473.2 118.93 484.14 109.61 494.91 100.05 505.51 90.54 515.92 81.34 526.12 72.71 536.11 64.85 545.88 57.87 555.42 51.82 564.74 46.67 573.83 42.32 582.71 38.59 591.38 35.26 599.86 32.07 608.16 28.75 616.3 25.08 624.3 20.82 632.19 15.82 640 9.99 633.94 -7.74 628.52 -25.48 624.3 -43.22 621.71 -60.96 621.02 -78.7 622.31 -96.44 625.44 -114.18 630.08 -131.92 617.84 -132.53 605.59 -134.12 593.35 -136.48 581.1 -139.31 568.86 -142.22 556.61 -144.85 544.37 -146.83 532.12 -147.91 519.88 -147.96 507.64 -146.95 495.39 -145.03 483.15 -142.44 470.9 -139.53 458.66 -136.69 446.41 -134.28 434.17 -132.62 421.93 -131.93 409.68 -132.31 397.44 -133.69 385.19 -135.91 372.95 -138.67 360.7 -141.6 348.46 -144.32 336.21 -146.47 323.97 -147.76 311.73 -148.04 299.48 -147.25 287.24 -145.51 274.99 -143.05 262.75 -140.18 250.5 -137.29 238.26 -134.75 226.01 -132.9 213.77 -131.99 201.53 -132.13 189.28 -133.31 177.04 -135.37 164.79 -138.03 152.55 -140.96 140.3 -143.76 128.06 -146.06 115.82 -147.56 103.57 -148.07 91.33 -147.51 79.08 -145.97 66.84 -143.64 54.59 -140.82 42.35 -137.9 30.1 -135.26 17.86 -133.24 5.62 -132.1 -6.62 -132.01 -18.86 -132.97 -31.11 -134.85 -43.35 -137.41 -55.6 -140.31 -67.84 -143.17 -80.09 -145.61 -92.33 -147.31 -104.57 -148.05 -116.82 -147.73 -129.06 -146.38 -131.04 -132.8 -109.24 -118.46 -98.27 -110.78 -87.32 -102.18 -76.36 -92.77 -65.39 -82.72" fill="url(#uuunion-grad2)" filter="url(#uuunion-blur)"></path><path d="M657.13 415.49Q673.49 413.99 689.85 409.44 706.21 402.85 722.57 395.63 724.3 410.57 724.47 425.51 723.07 440.45 720.21 455.4 716.11 470.34 711.07 485.28 705.5 500.22 699.8 515.16 694.43 530.11 689.8 545.05 686.25 559.99 684.06 574.93 683.4 589.87 684.32 604.82 686.75 619.76 690.5 634.7 695.28 649.64 700.73 664.58 706.44 679.53 711.95 694.47 716.86 709.41 720.78 724.35 723.41 739.29 724.55 754.23 724.12 769.18 722.15 784.12 718.78 799.06 714.28 814 708.99 828.94 703.32 843.89 697.7 858.83 692.56 873.77 681.7 880.84 670.84 887.83 659.97 894 649.11 898.71 638.25 901.48 627.39 902.01 616.52 900.25 605.66 896.38 594.8 890.81 583.93 884.11 573.07 876.98 562.21 870.17 551.35 864.38 540.48 860.21 529.62 858.11 518.76 858.28 507.9 860.71 497.03 865.14 486.17 871.13 475.31 878.03 464.44 885.14 453.58 891.72 442.72 897.07 431.86 900.65 420.99 902.08 410.13 901.21 399.27 898.13 388.4 893.17 377.54 886.83 366.68 879.79 355.82 872.76 344.95 866.49 334.09 861.62 323.23 858.67 312.36 857.93 301.5 859.49 290.64 863.18 279.78 868.63 268.91 875.25 258.05 882.37 247.19 889.24 236.33 895.15 225.46 899.48 214.6 901.79 203.74 901.82 192.87 899.59 182.01 895.32 171.15 889.45 160.29 882.6 149.42 875.48 138.56 868.82 127.7 863.33 116.83 859.58 105.97 857.95 95.11 858.61 84.25 861.5 73.38 866.31 62.52 872.55 51.66 879.56 40.8 886.62 29.93 892.98 19.07 898 3.02 896.55 -1.64 881.81 -1.09 871.67 -0.54 861.54 -0.01 851.4 0.48 841.26 1.38 826.06 2.33 821 15.3 813.26 28.27 802.94 41.22 790.6 54.15 777.06 67.04 763.31 79.87 750.34 92.64 739.05 105.33 730.09 117.93 723.8 130.43 720.17 142.82 718.82 155.11 719.08 167.28 720.08 179.33 720.83 191.26 720.42 203.09 718.06 214.8 713.27 226.41 705.87 237.94 696.03 249.38 684.26 260.76 671.3 272.1 658.06 283.4 645.47 294.69 634.38 305.99 625.41 317.32 618.9 328.7 614.87 340.16 613 351.7 612.68 363.36 613.12 375.15 613.41 387.08 612.69 399.18 610.22 411.46 605.53 423.93 598.43 436.6 589.04 449.47 577.82 462.54 565.44 475.83 552.72 489.31 540.54 502.99 529.67 516.86 520.72 530.89 514.03 545.09 509.63 559.41 507.26 573.85 506.38 588.38 506.26 602.96 506.07 617.58 505.02 632.2 502.41 646.79 497.78 661.31 490.94 675.75 481.98 690.06 471.29 704.21 459.47 718.18 447.29 731.95 435.53 745.47 424.92 758.75 416.03 771.74 409.19 784.45 404.46 796.85 401.61 799.9 392.65 779.84 385.5 769.61 384.53 759.39 384.89 749.16 386.55 738.94 389.36 728.71 393.09 718.48 397.41 708.26 401.95 698.03 406.32 687.81 410.15 677.58 413.11 667.36 414.94 657.13 415.49" fill="url(#uuunion-grad3)" filter="url(#uuunion-blur2)"></path></svg>